<svg xmlns="http://www.w3.org/2000/svg" width="1200" height="630" viewBox="0 0 1200 630" fill="none">
  <defs>
    <linearGradient id="bg" x1="0" y1="0" x2="1200" y2="630" gradientUnits="userSpaceOnUse">
      <stop stop-color="#06070b"/>
      <stop offset="1" stop-color="#101522"/>
    </linearGradient>
    <linearGradient id="accent" x1="180" y1="120" x2="520" y2="420" gradientUnits="userSpaceOnUse">
      <stop stop-color="#00c6ff"/>
      <stop offset="0.55" stop-color="#0072ff"/>
      <stop offset="1" stop-color="#5b8dff"/>
    </linearGradient>
    <radialGradient id="glow" cx="0" cy="0" r="1" gradientUnits="userSpaceOnUse" gradientTransform="translate(900 120) rotate(90) scale(280 280)">
      <stop stop-color="#00c6ff" stop-opacity="0.22"/>
      <stop offset="1" stop-color="#00c6ff" stop-opacity="0"/>
    </radialGradient>
  </defs>
  <rect width="1200" height="630" fill="url(#bg)"/>
  <rect width="1200" height="630" fill="url(#glow)"/>
  <rect x="80" y="80" width="1040" height="470" rx="28" fill="rgba(255,255,255,0.02)" stroke="rgba(0,198,255,0.18)"/>
  <rect x="120" y="150" width="96" height="96" rx="24" fill="#0d1118" stroke="url(#accent)" stroke-opacity="0.45"/>
  <path d="M168 178 L204 262 H190 L182 240 H154 L146 262 H132 L168 178 Z" fill="url(#accent)"/>
  <path d="M156 214 H180" stroke="#06070b" stroke-width="4" stroke-linecap="round"/>
  <path d="M132 286 C152 274 168 280 192 286 C216 292 232 284 252 286" stroke="#00c6ff" stroke-width="4" stroke-linecap="round" opacity="0.8"/>
  <text x="250" y="205" fill="#f0f0f8" font-family="Arial, Helvetica, sans-serif" font-size="58" font-weight="800">Aquatic Aces</text>
  <text x="250" y="255" fill="#7a7a94" font-family="Arial, Helvetica, sans-serif" font-size="30" font-weight="600">Minecraft 1.21 Fabric Client</text>
  <text x="250" y="320" fill="#00c6ff" font-family="Arial, Helvetica, sans-serif" font-size="24" font-weight="700">60+ Modules · NanoVG ClickGUI · HUD Editor</text>
  <text x="250" y="365" fill="#c8c8dc" font-family="Arial, Helvetica, sans-serif" font-size="22">KillAura · ESP · Scaffold · Config Profiles · Schematics</text>
  <rect x="250" y="400" width="220" height="54" rx="14" fill="url(#accent)"/>
  <text x="285" y="435" fill="#ffffff" font-family="Arial, Helvetica, sans-serif" font-size="22" font-weight="700">Free Download</text>
  <text x="250" y="500" fill="#55556a" font-family="Arial, Helvetica, sans-serif" font-size="18">Fabric API + Fabric Language Kotlin required</text>
</svg>
